<svg width="53" height="62" viewBox="0 0 53 62" fill="none" xmlns="http://www.w3.org/2000/svg">
<path d="M32.5611 8.50669C40.6224 11.4746 44.7487 20.4131 41.7812 28.4735C38.8136 36.5339 29.8751 40.6617 21.8153 37.6943C20.17 37.0895 18.6392 36.2101 17.2878 35.0937C19.1253 37.0243 21.3825 38.5061 23.8847 39.4241C32.9243 42.7522 42.951 38.1213 46.2796 29.0802C49.6082 20.0392 44.9777 10.0129 35.938 6.68483C29.0266 4.14029 21.5416 6.25237 16.9115 11.4262C19.0147 9.57408 21.5795 8.325 24.3343 7.81108C27.0892 7.29715 29.9317 7.5375 32.5611 8.50669Z" fill="#B59A6C" fill-opacity="0.5"/>
<path d="M25.8398 52.3416C17.2677 52.8724 9.88882 46.3533 9.35703 37.7844C8.82524 29.2155 15.3457 21.8323 23.9142 21.3C25.6638 21.1908 27.4192 21.379 29.1059 21.8566C26.6465 20.83 23.9837 20.3833 21.3239 20.5511C11.7095 21.146 4.39715 29.4236 4.99159 39.0384C5.58604 48.6532 13.8633 55.9667 23.4779 55.371C30.8291 54.915 36.83 49.967 38.9835 43.3671C37.8044 45.9084 35.9605 48.084 33.6469 49.6637C31.3333 51.2434 28.6359 52.1686 25.8398 52.3416Z" fill="#B59A6C" fill-opacity="0.5"/>
</svg>
